<svg xmlns="http://www.w3.org/2000/svg" width="613.525" height="604.103" viewBox="0 0 613.525 604.103">
  <path id="Контур_241" data-name="Контур 241" d="M1579.166,1161.394c8.105-135.077,148.589-147.234,148.589-147.234s-104.011,32.419-112.117,137.78c-4.053,49.977,16.209,85.1,41.876,106.711,28.365,24.313,63.486,32.418,63.486,32.418-17.56,9.457-148.589-4.051-141.834-129.675m74.295,44.576s39.171-62.135,94.554-22.963,20.262,110.765-20.26,121.57c-39.174,10.807-97.258,5.4-144.536-51.329s-35.121-118.868-17.56-148.586c0,0-28.365,25.665-37.82,67.538-16.209,70.24,4.049,179.655,118.868,252.6,0,0-126.974-36.471-145.884-185.057,0,0-40.525,122.921,56.732,237.738s222.878,99.958,268.807,87.8,112.114-47.278,125.622-62.136c0,0-104.011,140.48-302.575,70.239,0,0,109.413,89.152,279.612,8.105s176.953-230.985,176.953-287.716-22.962-132.378-81.048-191.81c-58.084-58.085-133.727-91.854-170.2-90.5,0,0,206.671,59.437,176.953,272.858,0,0,9.458-163.444-128.323-217.474,0,0,83.749,58.083,81.046,141.831-2.7,82.4-37.82,131.027-99.958,156.692,0,0,37.823-49.979,32.42-99.958s-22.966-98.606,31.068-98.606c0,0-58.083-22.963-95.906-49.979s-95.907-67.54-112.116,0c0,1.351-86.45,4.052-86.45,89.15m155.34-74.291s-21.611-9.456-35.12-12.157c-8.105-1.351-5.4-22.964,12.156-10.806,14.86,8.1,21.613,17.56,22.964,22.964" transform="translate(-1492.449 -1011.418)" fill="#efefef" opacity="0.497"/>
</svg>
