<svg xmlns="http://www.w3.org/2000/svg" width="69.47" height="65.616" viewBox="0 0 69.47 65.616">
  <g id="Layer_2" data-name="Layer 2" opacity="0.5">
    <g id="Layer_1" data-name="Layer 1">
      <path id="Контур_360" data-name="Контур 360" d="M9.221,42.45H0V63.615H5.4V57.653H9.235c5.411,0,8.529-2.878,8.522-7.838C17.75,45.1,14.639,42.45,9.221,42.45ZM8.96,53.42H5.39V46.683H8.96c2.328,0,3.739,1.094,3.739,3.323S11.288,53.42,8.96,53.42Z" transform="translate(0 -12.502)" fill="#4a4a4b"/>
      <path id="Контур_361" data-name="Контур 361" d="M47.012,63.595V55.369H38.236V63.6H32.86V42.437h5.383v8.706h8.762V42.43h5.383V63.595Z" transform="translate(-9.677 -12.496)" fill="#4a4a4b"/>
      <path id="Контур_362" data-name="Контур 362" d="M89.355,63.568H82.914l-4.572-6.745-4.565,6.745H67.52l7.556-10.815L68.021,42.417h6.258l4.085,6.166,4.078-6.173h6.349l-7.034,10.1Z" transform="translate(-19.885 -12.49)" fill="#4a4a4b"/>
      <rect id="Прямоугольник_79" data-name="Прямоугольник 79" width="5.383" height="21.172" transform="translate(30.245)" fill="#4a4a4b"/>
      <rect id="Прямоугольник_80" data-name="Прямоугольник 80" width="5.383" height="10.582" transform="translate(42.711 10.582)" fill="#4a4a4b"/>
      <rect id="Прямоугольник_81" data-name="Прямоугольник 81" width="5.383" height="10.582" transform="translate(17.786 10.582)" fill="#4a4a4b"/>
      <path id="Контур_363" data-name="Контур 363" d="M29.469,88.375h0a1.989,1.989,0,0,1-1.3.635h0a1.235,1.235,0,0,1-.917-.4,1.467,1.467,0,0,1-.374-1A1.312,1.312,0,0,1,28.171,86.2h0a1.785,1.785,0,0,1,1.3.705v.042l.988-1.171h0a3.344,3.344,0,0,0-2.342-1h0a3.147,3.147,0,0,0-2.187.868,2.822,2.822,0,0,0-.868,2.053,2.893,2.893,0,0,0,2.991,2.885h0a3.393,3.393,0,0,0,2.4-1.094h0l-.981-1.051Z" transform="translate(-7.38 -24.965)" fill="#4a4a4b"/>
      <path id="Контур_364" data-name="Контур 364" d="M66.2,89.148H63.213v-.8h2.639V86.989H63.213v-.8h2.907V84.83l-4.649.007v5.672L66.2,90.5Z" transform="translate(-18.103 -24.983)" fill="#4a4a4b"/>
      <path id="Контур_365" data-name="Контур 365" d="M39.5,84.787h0a3.217,3.217,0,0,0-2.208.818,2.78,2.78,0,0,0-.875,2.067A2.907,2.907,0,0,0,39.5,90.579h0a3.189,3.189,0,0,0,2.208-.832,2.822,2.822,0,0,0,.875-2.081A2.893,2.893,0,0,0,39.5,84.787Zm0,4.318h0a1.277,1.277,0,0,1-.931-.409,1.474,1.474,0,0,1-.4-1.023A1.362,1.362,0,0,1,39.5,86.262h0a1.221,1.221,0,0,1,.9.4,1.489,1.489,0,0,1,.374,1.016,1.348,1.348,0,0,1-1.249,1.432Z" transform="translate(-10.726 -24.969)" fill="#4a4a4b"/>
      <path id="Контур_366" data-name="Контур 366" d="M53.727,88.667a1.954,1.954,0,0,0,.924-1.792c0-1.284-.875-2.025-2.4-2.025H49.6v5.644h1.743V89.012h.811l.705,1.482h1.982ZM52.8,87.46a.748.748,0,0,1-.55.19h-.91V86.2h.91a.656.656,0,0,1,.705.705A.705.705,0,0,1,52.8,87.46Z" transform="translate(-14.607 -24.989)" fill="#4a4a4b"/>
    </g>
  </g>
</svg>
