<svg xmlns="http://www.w3.org/2000/svg" xmlns:xlink="http://www.w3.org/1999/xlink" width="225" height="64.924" viewBox="0 0 225 64.924">
  <defs>
    <clipPath id="clip-path">
      <rect id="Прямоугольник_38" data-name="Прямоугольник 38" width="225" height="64.924" transform="translate(0 0)" fill="none"/>
    </clipPath>
  </defs>
  <g id="Сгруппировать_119" data-name="Сгруппировать 119" transform="translate(0 4)">
    <g id="Сгруппировать_118" data-name="Сгруппировать 118" transform="translate(0 -4)" clip-path="url(#clip-path)">
      <path id="Контур_242" data-name="Контур 242" d="M78.2,32.942a15.89,15.89,0,0,1-4.194.524c-3.758,0-8.127-1.922-8.127-7.252,0-4.894,3.408-7.34,8.127-7.34a17.518,17.518,0,0,1,4.194.7l-.262,3.058a7,7,0,0,0-3.67-.961,4.289,4.289,0,0,0-4.457,4.544c0,2.8,1.923,4.456,4.719,4.456a10.789,10.789,0,0,0,3.5-.7Z" fill="#5a5b5d"/>
      <path id="Контур_243" data-name="Контур 243" d="M83.793,21.059h-3.67V18.35h3.67Zm-3.67,1.66h3.67V33.292h-3.67Z" fill="#5a5b5d"/>
      <path id="Контур_244" data-name="Контур 244" d="M85.541,22.719h2.185V20.36l3.582-1.136v3.495h2.534v2.534H91.308v3.932c0,1.311.262,1.923,1.486,1.923a5.146,5.146,0,0,0,1.136-.175l.087,2.359a17.243,17.243,0,0,1-2.272.175c-3.233,0-4.019-1.4-4.019-3.932V25.253h-2.1V22.719Z" fill="#5a5b5d"/>
      <path id="Контур_245" data-name="Контур 245" d="M96.114,34.777a4.336,4.336,0,0,0,1.4.262,1.851,1.851,0,0,0,1.835-1.485L95.065,22.806H99l2.271,6.9,2.185-6.9h3.67l-3.845,9.786c-1.048,2.622-1.835,5.243-5.155,5.243a10.055,10.055,0,0,1-2.272-.262Z" fill="#5a5b5d"/>
      <path id="Контур_246" data-name="Контур 246" d="M119.969,33.554c3.495,0,6.117-2.01,6.117-5.505s-2.622-5.5-6.117-5.5-6.117,2.01-6.117,5.5,2.622,5.505,6.117,5.505m0-2.534c-1.66,0-2.359-1.4-2.359-2.971s.7-2.971,2.359-2.971,2.359,1.4,2.359,2.971-.7,2.971-2.359,2.971" fill="#5a5b5d"/>
      <path id="Контур_247" data-name="Контур 247" d="M129.144,25.34h-2.185V22.806h2.185v-.612c0-3.145,1.485-4.194,4.369-4.194a9.226,9.226,0,0,1,1.835.175l-.262,2.534a3.407,3.407,0,0,0-1.136-.175c-.961,0-1.311.612-1.311,1.66v.612h2.622V25.34h-2.622v8.039h-3.67V25.34Z" fill="#5a5b5d"/>
      <path id="Контур_248" data-name="Контур 248" d="M143.387,33.292h3.757V28.311h1.485c3.5,0,5.593-1.66,5.593-4.544,0-3.145-2.01-4.631-6.379-4.631h-4.456Zm3.757-11.447h.961c1.311,0,2.359.437,2.359,1.922s-1.048,1.923-2.359,1.923h-.961Z" fill="#5a5b5d"/>
      <path id="Контур_249" data-name="Контур 249" d="M155.707,18.088h3.67v6.2a4.041,4.041,0,0,1,3.495-1.835c2.884,0,4.02,2.01,4.02,4.194v6.554h-3.67V28.137c0-2.01-.7-2.622-1.66-2.622-1.486,0-2.272,1.049-2.272,3.321v4.456h-3.67v-15.2Z" fill="#5a5b5d"/>
      <path id="Контур_250" data-name="Контур 250" d="M174.581,33.554c3.5,0,6.117-2.01,6.117-5.505s-2.622-5.5-6.117-5.5-6.117,2.01-6.117,5.5,2.622,5.505,6.117,5.505m0-2.534c-1.66,0-2.359-1.4-2.359-2.971s.7-2.971,2.359-2.971,2.359,1.4,2.359,2.971-.611,2.971-2.359,2.971" fill="#5a5b5d"/>
      <path id="Контур_251" data-name="Контур 251" d="M192.932,29.1v-.7c0-3.146-1.4-5.942-5.331-5.942-3.32,0-5.679,2.01-5.679,5.5s2.621,5.5,6.116,5.5a9.149,9.149,0,0,0,3.845-.7V30.321a6.522,6.522,0,0,1-3.233.787c-1.748,0-2.884-.524-3.058-2.01ZM185.679,27c.087-1.223.7-2.185,2.01-2.185,1.485,0,2.009.962,2.009,2.185Z" fill="#5a5b5d"/>
      <path id="Контур_252" data-name="Контур 252" d="M194.592,22.719h3.32v1.922a4.021,4.021,0,0,1,3.845-2.184c2.884,0,4.02,2.01,4.02,4.194v6.554h-3.67V28.137c0-2.01-.7-2.622-1.661-2.622-1.485,0-2.271,1.049-2.271,3.321v4.456h-3.67V22.719Z" fill="#5a5b5d"/>
      <path id="Контур_253" data-name="Контур 253" d="M211.194,21.059h-3.67V18.35h3.67Zm-3.583,1.66h3.67V33.292h-3.67Z" fill="#5a5b5d"/>
      <path id="Контур_254" data-name="Контур 254" d="M216.524,27.962l-3.233-5.243h4.282l1.572,3.233,1.661-3.233h3.932l-3.321,5.156L225,33.292h-4.457L218.8,30.059l-1.748,3.233h-4.107Z" fill="#5a5b5d"/>
      <path id="Контур_255" data-name="Контур 255" d="M24.811,9.525c.262.087.7.175,1.224.349l.611.175A3.983,3.983,0,0,0,25.6,9a2.92,2.92,0,0,0-1.136-.612.549.549,0,0,0-.7.262c-.088.35,0,.612.349.7l.7.175M19.918,25.079c-1.136-.437-8.825-3.321-8.738-10.923C11.355,3.233,21.054.525,22.015,0,17.122.874,7.423,3.932,7.423,13.806c0,11.1,11.883,11.709,12.495,11.273m33.991,1.485c0,20.709-18.525,26.826-26.826,26.826a23.4,23.4,0,0,1-13.369-3.67,19.634,19.634,0,0,0,9.35,1.922,20.224,20.224,0,0,0,10.66-2.534A16.792,16.792,0,0,0,40.1,43.516c-1.835,1.66-8.389,6.9-16.777,6.9-8.476,0-14.331-5.156-17.389-8.651a22.043,22.043,0,0,1-5.33-10.66A22.651,22.651,0,0,1,.956,19.486c.787,5.68,1.224,7.777,3.583,10.573,2.447,2.8,5.942,5.767,8.738,6.2-3.5-2.272-9.088-6.2-10.311-14.243A16.129,16.129,0,0,1,6.549,8.738c-1.224,5.505-.088,10.137,2.359,13.107,3.233,4.107,7.34,4.02,8.825,4.282,4.369.7,7.515-2.359,7.515-5.942a6.38,6.38,0,0,0-1.66-4.107,6.6,6.6,0,0,0-4.981-1.922A6.643,6.643,0,0,0,14.063,16.6,8.641,8.641,0,0,1,16.51,11.1,7.032,7.032,0,0,1,21.578,9a2.487,2.487,0,0,1,1.66-2.534,4.046,4.046,0,0,1,2.8-.263c1.922.35,6.116,3.583,7.252,4.457A27.937,27.937,0,0,0,40.1,14.156c-2.622.262-3.058,1.4-3.058,2.8,0,1.486.524,3.321.524,6.292,0,2.883-.961,6.116-2.447,7.6,1.835-.35,2.8-1.049,5.068-3.408,2.272-2.272,3.146-5.068,3.146-8.563,0-4.282-1.66-8.564-6.554-13.457,1.835.7,6.03,3.757,7.6,6.9,1.835,3.67,3.058,5.942,3.058,9.612a12.265,12.265,0,0,0-.612-7.253,18.684,18.684,0,0,0-3.757-6.9C40.715,4.719,35.035.7,31.54.088c2.184,0,22.369,5.417,22.369,26.476" fill="#a7005b"/>
      <path id="Контур_256" data-name="Контур 256" d="M71.385,47.535a4.434,4.434,0,0,0-1.485-.262,2.616,2.616,0,0,0-2.709,2.883A2.616,2.616,0,0,0,69.9,53.04a4.079,4.079,0,0,0,1.485-.262v.611a4.435,4.435,0,0,1-1.485.263,3.143,3.143,0,0,1-3.321-3.408A3.188,3.188,0,0,1,69.9,46.836a4.434,4.434,0,0,1,1.485.262Z" fill="#5a5b5d"/>
      <path id="Контур_257" data-name="Контур 257" d="M75.754,46.661c2.01,0,2.971,1.66,2.883,3.408,0,2.009-.961,3.407-2.883,3.407s-2.884-1.4-2.884-3.407c-.087-1.748.874-3.408,2.884-3.408m-2.272,3.495c0,1.4.7,2.884,2.272,2.884s2.272-1.486,2.272-2.884-.7-2.884-2.272-2.884-2.272,1.486-2.272,2.884" fill="#5a5b5d"/>
      <path id="Контур_258" data-name="Контур 258" d="M79.948,46.836H81l2.446,5.854,2.447-5.854h.961v6.641h-.612V47.535l-2.446,5.942h-.525l-2.446-5.942v5.942H80.21V46.836Z" fill="#5a5b5d"/>
      <path id="Контур_259" data-name="Контур 259" d="M88.424,46.836h1.049l2.446,5.854,2.447-5.854h.961v6.641h-.612V47.535l-2.446,5.942h-.525L89.3,47.535v5.942h-.612V46.836Z" fill="#5a5b5d"/>
      <path id="Контур_260" data-name="Контур 260" d="M101.619,51.118a2.249,2.249,0,0,1-2.359,2.447,2.2,2.2,0,0,1-2.36-2.447V46.836h.612v4.282a1.75,1.75,0,1,0,3.5,0V46.836h.612Z" fill="#5a5b5d"/>
      <path id="Контур_261" data-name="Контур 261" d="M103.1,46.836h.786L107.3,52.69V46.836h.612v6.641h-.874l-3.32-5.68v5.68H103.1Z" fill="#5a5b5d"/>
      <rect id="Прямоугольник_36" data-name="Прямоугольник 36" width="0.612" height="6.641" transform="translate(109.396 46.836)" fill="#5a5b5d"/>
      <path id="Контур_262" data-name="Контур 262" d="M112.8,47.36h-1.922v-.612h4.543v.612H113.5v6.029h-.612V47.36Z" fill="#5a5b5d"/>
      <path id="Контур_263" data-name="Контур 263" d="M118.134,50.593l-2.447-3.845h.787l2.01,3.233,2.1-3.233h.7l-2.447,3.845v2.8h-.612v-2.8Z" fill="#5a5b5d"/>
      <path id="Контур_264" data-name="Контур 264" d="M128.619,51.817a3.4,3.4,0,0,0,.612-2.01h.611a4.174,4.174,0,0,1-.7,2.359l1.136,1.224h-.873l-.7-.7a2.534,2.534,0,0,1-2.01.873,1.939,1.939,0,0,1-2.185-1.835,2.048,2.048,0,0,1,1.573-1.922,2.4,2.4,0,0,1-.874-1.66c0-.961.874-1.4,1.748-1.4a1.422,1.422,0,0,1,1.573,1.4c0,1.048-.787,1.4-1.573,1.835Zm-2.272-1.66a1.786,1.786,0,0,0-1.223,1.485,1.427,1.427,0,0,0,1.573,1.4,2.153,2.153,0,0,0,1.66-.786Zm.175-.612c.612-.262,1.311-.612,1.311-1.4a.874.874,0,0,0-.961-.961.988.988,0,0,0-1.049.961,2.377,2.377,0,0,0,.7,1.4" fill="#5a5b5d"/>
      <path id="Контур_265" data-name="Контур 265" d="M133.775,46.836h3.233v.612h-2.621v2.359h2.446v.612h-2.446v2.534h2.708v.611h-3.32Z" fill="#5a5b5d"/>
      <path id="Контур_266" data-name="Контур 266" d="M143.037,47.535a4.434,4.434,0,0,0-1.485-.262,2.616,2.616,0,0,0-2.709,2.883,2.616,2.616,0,0,0,2.709,2.884,4.079,4.079,0,0,0,1.485-.262v.611a4.435,4.435,0,0,1-1.485.263,3.143,3.143,0,0,1-3.321-3.408,3.188,3.188,0,0,1,3.321-3.408,4.434,4.434,0,0,1,1.485.262Z" fill="#5a5b5d"/>
      <path id="Контур_267" data-name="Контур 267" d="M147.406,46.661c2.01,0,2.971,1.66,2.883,3.408,0,2.009-1.048,3.407-2.883,3.407s-2.884-1.4-2.884-3.407c0-1.748.962-3.408,2.884-3.408m-2.272,3.495c0,1.4.7,2.884,2.272,2.884s2.272-1.486,2.272-2.884-.7-2.884-2.272-2.884c-1.486,0-2.272,1.486-2.272,2.884" fill="#5a5b5d"/>
      <path id="Контур_268" data-name="Контур 268" d="M151.6,46.836h.786l3.408,5.854V46.836h.612v6.641h-.874l-3.32-5.68v5.68H151.6Z" fill="#5a5b5d"/>
      <path id="Контур_269" data-name="Контур 269" d="M160.6,46.661c2.01,0,2.971,1.66,2.883,3.408,0,2.009-1.048,3.407-2.883,3.407-1.922,0-2.884-1.4-2.884-3.407,0-1.748.874-3.408,2.884-3.408m-2.272,3.495c0,1.4.7,2.884,2.272,2.884s2.272-1.486,2.272-2.884-.7-2.884-2.272-2.884-2.272,1.486-2.272,2.884" fill="#5a5b5d"/>
      <path id="Контур_270" data-name="Контур 270" d="M164.882,46.836h1.049l2.446,5.854,2.447-5.854h.961v6.641h-.612V47.535l-2.446,5.942h-.7l-2.447-5.942v5.942h-.612V46.836Z" fill="#5a5b5d"/>
      <rect id="Прямоугольник_37" data-name="Прямоугольник 37" width="0.612" height="6.641" transform="translate(173.183 46.836)" fill="#5a5b5d"/>
      <path id="Контур_271" data-name="Контур 271" d="M179.912,47.535a4.434,4.434,0,0,0-1.485-.262,2.616,2.616,0,0,0-2.709,2.883,2.616,2.616,0,0,0,2.709,2.884,4.079,4.079,0,0,0,1.485-.262v.611a4.435,4.435,0,0,1-1.485.263,3.143,3.143,0,0,1-3.321-3.408,3.188,3.188,0,0,1,3.321-3.408,4.434,4.434,0,0,1,1.485.262Z" fill="#5a5b5d"/>
      <path id="Контур_272" data-name="Контур 272" d="M66.754,58.2h1.661a2.991,2.991,0,0,1,3.32,3.32c0,2.359-1.573,3.321-3.757,3.321H66.842V58.2Zm.612,6.029h.524c1.835,0,3.059-.786,3.059-2.8A2.437,2.437,0,0,0,68.24,58.72h-.961v5.5Z" fill="#5a5b5d"/>
      <path id="Контур_273" data-name="Контур 273" d="M73.133,58.2h3.233v.612H73.745v2.359h2.446v.612H73.745v2.534h2.708v.611h-3.32Z" fill="#5a5b5d"/>
      <path id="Контур_274" data-name="Контур 274" d="M80.3,64.836h-.7L77.152,58.2h.7l2.1,5.942L82.133,58.2h.612Z" fill="#5a5b5d"/>
      <path id="Контур_275" data-name="Контур 275" d="M83.706,58.2h3.233v.612H84.318v2.359h2.446v.612H84.318v2.534h2.708v.611h-3.32Z" fill="#5a5b5d"/>
      <path id="Контур_276" data-name="Контур 276" d="M88.337,58.2h.612v6.029H91.57v.612H88.25V58.2Z" fill="#5a5b5d"/>
      <path id="Контур_277" data-name="Контур 277" d="M95.24,58.108c2.01,0,2.971,1.66,2.883,3.408,0,2.01-.961,3.408-2.883,3.408s-2.884-1.4-2.884-3.408c-.087-1.835.874-3.408,2.884-3.408m-2.272,3.408c0,1.4.7,2.884,2.272,2.884s2.272-1.486,2.272-2.884-.7-2.884-2.272-2.884-2.272,1.486-2.272,2.884" fill="#5a5b5d"/>
      <path id="Контур_278" data-name="Контур 278" d="M99.521,58.195h1.661c1.223,0,2.009.612,2.009,1.835a1.863,1.863,0,0,1-2.1,1.835h-.874v2.884h-.611V58.195Zm.612,3.146h.437c.961,0,1.922-.087,1.922-1.311a1.158,1.158,0,0,0-1.31-1.31h-1.049Z" fill="#5a5b5d"/>
      <path id="Контур_279" data-name="Контур 279" d="M104.24,58.2h1.049l2.446,5.855,2.447-5.855h.961v6.641h-.786V58.894l-2.447,5.942h-.524l-2.447-5.942v5.942h-.7Z" fill="#5a5b5d"/>
      <path id="Контур_280" data-name="Контур 280" d="M112.629,58.2h3.233v.612h-2.621v2.359h2.446v.612h-2.446v2.534h2.708v.611h-3.32Z" fill="#5a5b5d"/>
      <path id="Контур_281" data-name="Контур 281" d="M117.347,58.2h.786l3.408,5.855V58.2h.612v6.641h-.874l-3.32-5.68v5.68h-.612Z" fill="#5a5b5d"/>
      <path id="Контур_282" data-name="Контур 282" d="M124.949,58.72h-1.922v-.612h4.543v.612h-1.922v6.029h-.612V58.72Z" fill="#5a5b5d"/>
    </g>
  </g>
</svg>
