<svg id="CoP_Phoenix_is_Hot_logotype" xmlns="http://www.w3.org/2000/svg" width="255" height="106.188" viewBox="0 0 255 106.188">
  <path id="Контур_230" data-name="Контур 230" d="M533.666,873.211l13.408-.083.166,24.085,24.747-.166-.248-24.085,13.408-.083.5,60.833-13.408.165-.166-24.5-24.747.166.166,24.5-13.325.083Z" transform="translate(-482.351 -828.849)" fill="#f75555"/>
  <path id="Контур_231" data-name="Контур 231" d="M886.25,899.96v-.166c-.166-17.3,13.408-31.616,32.2-31.7,18.788-.165,32.361,13.739,32.527,31.12v.166c.166,17.3-13.408,31.616-32.2,31.7-18.87.083-32.444-13.822-32.527-31.12m50.652-.414v-.165c-.083-10.429-7.78-19.119-18.622-19.036-10.76.083-18.208,8.69-18.126,19.119v.166c.083,10.428,7.78,19.119,18.622,19.036s18.208-8.69,18.126-19.119" transform="translate(-773.855 -824.892)" fill="#f75555"/>
  <path id="Контур_232" data-name="Контур 232" d="M1290.438,885.46l-18.539.166-.083-12.332,50.487-.414.083,12.415-18.539.083.331,48.583-13.408.083Z" transform="translate(-1092.628 -828.849)" fill="#f75555"/>
  <rect id="Прямоугольник_7" data-name="Прямоугольник 7" width="7.78" height="35.258" transform="translate(0 44.445)"/>
  <path id="Контур_233" data-name="Контур 233" d="M313.415,903.9l4.552-5.463c3.145,2.648,6.538,4.3,10.511,4.3,3.145,0,5.131-1.241,5.131-3.311v-.083c0-1.986-1.241-2.979-7.118-4.469-7.118-1.821-11.67-3.807-11.67-10.76v-.083c0-6.373,5.131-10.677,12.332-10.677a20.182,20.182,0,0,1,13.077,4.469l-4.056,5.876c-3.145-2.152-6.207-3.476-9.187-3.476s-4.552,1.324-4.552,3.062v.083c0,2.318,1.49,3.062,7.614,4.635,7.118,1.9,11.173,4.469,11.173,10.594v.083c0,7.035-5.38,10.925-12.994,10.925a23.076,23.076,0,0,1-14.815-5.711" transform="translate(-300.255 -829.244)"/>
  <path id="Контур_234" data-name="Контур 234" d="M237.45,622.052h14.4c8.442,0,13.491,4.966,13.491,12.167v.083c0,8.194-6.373,12.415-14.236,12.415H245.23v10.594h-7.78Zm13.9,17.794c3.89,0,6.125-2.317,6.125-5.38v-.083c0-3.476-2.4-5.38-6.29-5.38H245.23v10.76h6.125Z" transform="translate(-237.45 -621.473)"/>
  <path id="Контур_235" data-name="Контур 235" d="M425.69,622.052h7.78V636.04h14.318V622.052h7.78v35.258h-7.78V643.158H433.47v14.153h-7.78Z" transform="translate(-393.081 -621.473)"/>
  <path id="Контур_236" data-name="Контур 236" d="M632.086,637v-.083c0-10.015,7.945-18.208,18.788-18.208s18.705,8.111,18.705,18.126v.083c0,10.015-7.945,18.208-18.788,18.208s-18.7-8.111-18.7-18.126m29.382,0v-.083c0-6.042-4.469-11.091-10.677-11.091-6.29,0-10.594,4.966-10.594,11.008v.083c0,6.042,4.469,11.091,10.677,11.091s10.594-4.966,10.594-11.008" transform="translate(-563.721 -618.708)"/>
  <path id="Контур_237" data-name="Контур 237" d="M882.913,622.052h26.568v6.87H890.61v7.2h16.636v6.87H890.61v7.449h19.119v6.87H882.913Z" transform="translate(-771.097 -621.473)"/>
  <path id="Контур_238" data-name="Контур 238" d="M1072.109,622.052h7.118l16.553,21.685V622.052h7.614v35.258h-6.539l-17.132-22.429v22.429h-7.615Z" transform="translate(-927.518 -621.473)"/>
  <rect id="Прямоугольник_8" data-name="Прямоугольник 8" width="7.78" height="35.258" transform="translate(183.739 0.579)"/>
  <path id="Контур_239" data-name="Контур 239" d="M1384.874,639.35l-11.753-17.3h9.021l7.366,11.422,7.532-11.422h8.856l-11.835,17.215,12.332,18.043h-9.1l-7.863-12.084-8.028,12.084h-8.773Z" transform="translate(-1175.974 -621.473)"/>
  <path id="Контур_240" data-name="Контур 240" d="M1497.762,1020.608c.5-8.276,9.1-9.021,9.1-9.021s-6.373,1.986-6.87,8.442a7.43,7.43,0,0,0,2.566,6.538,10.259,10.259,0,0,0,3.89,1.986c-1.076.58-9.1-.248-8.69-7.945m4.552,2.731s2.4-3.807,5.794-1.407,1.242,6.787-1.241,7.449a8.441,8.441,0,0,1-8.856-3.145,7.988,7.988,0,0,1-1.076-9.1,8.624,8.624,0,0,0-2.317,4.138c-.993,4.3.248,11.008,7.283,15.477a13.46,13.46,0,0,1-8.938-11.339,16.544,16.544,0,0,0,19.946,19.946c2.814-.745,6.87-2.9,7.7-3.807,0,0-6.373,8.608-18.54,4.3,0,0,6.7,5.463,17.133.5s10.842-14.153,10.842-17.629a17.357,17.357,0,0,0-4.966-11.753c-3.559-3.559-8.194-5.628-10.428-5.545,0,0,12.663,3.642,10.842,16.718,0,0,.579-10.014-7.863-13.325,0,0,5.132,3.559,4.966,8.69-.166,5.049-2.317,8.028-6.125,9.6,0,0,2.318-3.062,1.987-6.125s-1.407-6.042,1.9-6.042a33.2,33.2,0,0,1-5.876-3.062c-2.317-1.655-5.876-4.138-6.869,0,0,.083-5.3.248-5.3,5.462m9.518-4.552a13.979,13.979,0,0,0-2.152-.745c-.5-.083-.331-1.407.745-.662a2.722,2.722,0,0,1,1.407,1.407" transform="translate(-1275.041 -943.388)" fill="#f75555"/>
</svg>
