<svg xmlns="http://www.w3.org/2000/svg" width="16" height="13.091" viewBox="0 0 16 13.091">
  <path id="Контур_330" data-name="Контур 330" d="M2.5,15.864a.727.727,0,0,1,.727-.727H17.773a.727.727,0,0,1,0,1.455H3.227A.727.727,0,0,1,2.5,15.864Zm0-5.818a.727.727,0,0,1,.727-.727H17.773a.727.727,0,0,1,0,1.455H3.227A.727.727,0,0,1,2.5,10.045Zm0-5.818A.727.727,0,0,1,3.227,3.5H17.773a.727.727,0,0,1,0,1.455H3.227A.727.727,0,0,1,2.5,4.227Z" transform="translate(-2.5 -3.5)" fill-rule="evenodd" opacity="0.65"/>
</svg>
