<svg xmlns="http://www.w3.org/2000/svg" width="53.909" height="53.39" viewBox="0 0 53.909 53.39">
  <path id="Контур_255" data-name="Контур 255" d="M24.811,9.525c.262.087.7.175,1.224.349l.611.175A3.983,3.983,0,0,0,25.6,9a2.92,2.92,0,0,0-1.136-.612.549.549,0,0,0-.7.262c-.088.35,0,.612.349.7l.7.175M19.918,25.079c-1.136-.437-8.825-3.321-8.738-10.923C11.355,3.233,21.054.525,22.015,0,17.122.874,7.423,3.932,7.423,13.806c0,11.1,11.883,11.709,12.495,11.273m33.991,1.485c0,20.709-18.525,26.826-26.826,26.826a23.4,23.4,0,0,1-13.369-3.67,19.634,19.634,0,0,0,9.35,1.922,20.224,20.224,0,0,0,10.66-2.534A16.792,16.792,0,0,0,40.1,43.516c-1.835,1.66-8.389,6.9-16.777,6.9-8.476,0-14.331-5.156-17.389-8.651a22.043,22.043,0,0,1-5.33-10.66A22.651,22.651,0,0,1,.956,19.486c.787,5.68,1.224,7.777,3.583,10.573,2.447,2.8,5.942,5.767,8.738,6.2-3.5-2.272-9.088-6.2-10.311-14.243A16.129,16.129,0,0,1,6.549,8.738c-1.224,5.505-.088,10.137,2.359,13.107,3.233,4.107,7.34,4.02,8.825,4.282,4.369.7,7.515-2.359,7.515-5.942a6.38,6.38,0,0,0-1.66-4.107,6.6,6.6,0,0,0-4.981-1.922A6.643,6.643,0,0,0,14.063,16.6,8.641,8.641,0,0,1,16.51,11.1,7.032,7.032,0,0,1,21.578,9a2.487,2.487,0,0,1,1.66-2.534,4.046,4.046,0,0,1,2.8-.263c1.922.35,6.116,3.583,7.252,4.457A27.937,27.937,0,0,0,40.1,14.156c-2.622.262-3.058,1.4-3.058,2.8,0,1.486.524,3.321.524,6.292,0,2.883-.961,6.116-2.447,7.6,1.835-.35,2.8-1.049,5.068-3.408,2.272-2.272,3.146-5.068,3.146-8.563,0-4.282-1.66-8.564-6.554-13.457,1.835.7,6.03,3.757,7.6,6.9,1.835,3.67,3.058,5.942,3.058,9.612a12.265,12.265,0,0,0-.612-7.253,18.684,18.684,0,0,0-3.757-6.9C40.715,4.719,35.035.7,31.54.088c2.184,0,22.369,5.417,22.369,26.476" transform="translate(0)" fill="#a7005b"/>
</svg>
