<svg xmlns="http://www.w3.org/2000/svg" width="30" height="21.074" viewBox="0 0 30 21.074">
  <path id="Youtube" d="M15.1,2h.167c1.541.006,9.351.062,11.457.628A3.769,3.769,0,0,1,29.374,5.29a16.98,16.98,0,0,1,.413,2.629l.019.2.041.488.015.2c.122,1.714.137,3.319.139,3.67v.141c0,.364-.019,2.078-.154,3.863l-.015.2-.017.2a18.574,18.574,0,0,1-.441,2.921,3.763,3.763,0,0,1-2.653,2.663c-2.175.585-10.443.626-11.588.628h-.266c-.579,0-2.976-.011-5.488-.1l-.319-.011L8.9,22.957l-.321-.013-.321-.013a30.143,30.143,0,0,1-4.977-.488A3.763,3.763,0,0,1,.624,19.783a18.54,18.54,0,0,1-.441-2.921l-.015-.2-.015-.2Q.015,14.563,0,12.652v-.231c0-.4.019-1.8.12-3.334l.013-.193.006-.1.015-.2L.2,8.114l.019-.2A16.943,16.943,0,0,1,.626,5.29,3.763,3.763,0,0,1,3.28,2.627,30.781,30.781,0,0,1,8.256,2.14l.319-.013L8.9,2.115l.161-.006L9.379,2.1q2.677-.086,5.355-.1H15.1ZM12,8.018v9.034L19.8,12.537Z" transform="translate(0 -1.999)" opacity="0.65"/>
</svg>
